<?xml version="1.0" encoding="utf-8"?>
<!-- Generator: Adobe Illustrator 16.0.4, SVG Export Plug-In . SVG Version: 6.00 Build 0)  -->
<!DOCTYPE svg PUBLIC "-//W3C//DTD SVG 1.1//EN" "http://www.w3.org/Graphics/SVG/1.1/DTD/svg11.dtd">
<svg version="1.1" id="Layer_1" xmlns="http://www.w3.org/2000/svg" xmlns:xlink="http://www.w3.org/1999/xlink" x="0px" y="0px"
	 width="300px" height="122.771px" viewBox="0 0 300 122.771" enable-background="new 0 0 300 122.771" xml:space="preserve">
<g>
	<g>
		<path fill="#FFFFFF" d="M138.211,35.929c-0.607,0-1.1,0.817-1.1,1.826s0.492,1.828,1.1,1.828c0.61,0,1.103-0.819,1.103-1.828
			S138.821,35.929,138.211,35.929z"/>
		<ellipse fill="#FFFFFF" cx="161.846" cy="37.756" rx="1.102" ry="1.827"/>
		<path fill="#FFFFFF" d="M150.733,4.055c0.004,0.031,0.019,0.059,0.019,0.09v0.385c0.01,0.048,0.015,0.097,0.015,0.146v13.338
			c0,0.409-0.329,0.74-0.737,0.74s-0.739-0.331-0.739-0.74v-0.037c-0.025-0.076-0.043-0.156-0.043-0.24V4.145
			c0-0.031,0.015-0.059,0.019-0.09c-15.69,0.356-28.336,12.017-28.336,26.31c0,14.516,13.041,26.325,29.07,26.325
			s29.07-11.81,29.07-26.325C179.07,16.07,166.424,4.41,150.733,4.055z M152.247,7.133c0-0.408,0.331-0.737,0.739-0.737
			s0.737,0.329,0.737,0.737v8.426c0,0.408-0.329,0.739-0.737,0.739s-0.739-0.331-0.739-0.739V7.133z M146.332,7.133
			c0-0.408,0.331-0.737,0.739-0.737s0.739,0.329,0.739,0.737v8.426c0,0.408-0.331,0.739-0.739,0.739s-0.739-0.331-0.739-0.739V7.133
			z M135.862,43.217c-5.88,0-10.65-4.768-10.65-10.649c0-0.435,0.035-0.859,0.087-1.279c-0.054-0.103-0.087-0.218-0.087-0.342
			v-4.872c0-0.407,0.331-0.738,0.739-0.738s0.738,0.331,0.738,0.738v3.371l1.48,0.312v-5.11c0-0.407,0.33-0.738,0.739-0.738
			c0.407,0,0.737,0.331,0.737,0.738v5.42l1.48,0.312v-4.003c0-0.408,0.33-0.737,0.739-0.737c0.407,0,0.738,0.329,0.738,0.737v4.313
			l13.854,2.914C145.938,38.998,141.393,43.217,135.862,43.217z M152.208,50.685c0.294-0.285,0.766-0.278,1.05,0.019
			c0.285,0.296,0.276,0.764-0.018,1.051c-0.865,0.834-2.003,1.29-3.202,1.284c-1.223-0.003-2.368-0.486-3.231-1.354
			c-0.288-0.291-0.287-0.763,0.006-1.053c0.29-0.287,0.762-0.284,1.051,0.006c0.465,0.468,1.053,0.767,1.69,0.871v-2.237
			l-4.752-4.528h10.454l-4.75,4.528v2.246C151.144,51.424,151.735,51.138,152.208,50.685z M172.053,24.646v5.11l1.48-0.312v-3.371
			c0-0.407,0.332-0.738,0.74-0.738c0.406,0,0.737,0.331,0.737,0.738v4.872c0,0.124-0.033,0.239-0.087,0.342
			c0.052,0.42,0.087,0.845,0.087,1.279c0,5.882-4.77,10.649-10.65,10.649c-5.531,0-10.073-4.219-10.596-9.613l13.854-2.914v-4.313
			c0-0.408,0.33-0.737,0.739-0.737c0.408,0,0.738,0.329,0.738,0.737v4.002l1.481-0.312v-5.42c0-0.407,0.327-0.738,0.736-0.738
			C171.723,23.908,172.053,24.239,172.053,24.646z"/>
		<path fill="#FFFFFF" d="M181.452,21.062l0.35-0.426c1.835-2.24,2.806-4.963,2.806-7.876c0-6.885-5.602-12.486-12.486-12.486
			c-2.654,0-5.191,0.828-7.337,2.396l-0.46,0.336L163.8,2.784C159.459,0.937,154.816,0,150,0c-4.815,0-9.459,0.937-13.8,2.784
			l-0.525,0.223l-0.46-0.336c-2.144-1.568-4.681-2.396-7.335-2.396c-6.886,0-12.487,5.602-12.487,12.486
			c0,2.913,0.971,5.636,2.806,7.876l0.35,0.426l-0.173,0.524c-0.938,2.844-1.414,5.798-1.414,8.778
			c0,16.742,14.821,30.362,33.039,30.362s33.039-13.62,33.039-30.362c0-2.98-0.475-5.935-1.414-8.778L181.452,21.062z M150,59.39
			c-17.48,0-31.7-13.021-31.7-29.024c0-3.376,0.639-6.616,1.802-9.633c-2.077-2.022-3.37-4.844-3.37-7.972
			c0-6.157,4.989-11.148,11.148-11.148c2.925,0,5.578,1.136,7.563,2.979c4.363-2.073,9.311-3.254,14.557-3.254
			s10.193,1.18,14.557,3.254c1.985-1.844,4.639-2.979,7.564-2.979c6.157,0,11.147,4.991,11.147,11.148
			c0,3.128-1.292,5.949-3.368,7.972c1.162,3.017,1.801,6.257,1.801,9.633C181.701,46.368,167.479,59.39,150,59.39z"/>
	</g>
	<g>
		<g>
			<g>
				<path fill="#FFFFFF" d="M11.783,119.364v2.271c0,0.567-0.5,1.136-1.139,1.136h-8.37c-1.277,0-2.274-1.064-2.274-2.272V88.777
					c0-0.64,0.498-1.137,1.135-1.137h2.271c0.567,0,1.135,0.497,1.135,1.137v29.45h6.104
					C11.283,118.228,11.783,118.725,11.783,119.364z"/>
			</g>
			<g>
				<path fill="#FFFFFF" d="M39.998,92.184v10.715h6.171c0.637,0,1.138,0.498,1.138,1.137v2.271c0,0.64-0.501,1.137-1.138,1.137
					h-6.171v10.785h6.171c0.637,0,1.138,0.497,1.138,1.137v2.271c0,0.64-0.501,1.136-1.138,1.136h-8.444
					c-1.277,0-2.273-1.064-2.273-2.272V89.913c0-1.278,0.996-2.272,2.273-2.272h8.444c0.637,0,1.138,0.497,1.138,1.137v2.271
					c0,0.638-0.501,1.136-1.138,1.136H39.998z"/>
			</g>
			<g>
				<path fill="#FFFFFF" d="M87.296,95.873v25.762c0,0.64-0.496,1.136-1.135,1.136h-2.27c-0.638,0-1.139-0.496-1.139-1.136v-14.122
					h-7.309v14.122c0,0.64-0.494,1.136-1.136,1.136h-2.27c-0.642,0-1.138-0.496-1.138-1.136V95.873c0-4.473,3.692-8.161,8.233-8.161
					C83.609,87.712,87.296,91.4,87.296,95.873z M82.753,95.873c0-1.986-1.632-3.619-3.618-3.619c-2.06,0-3.69,1.633-3.69,3.619
					v7.099h7.309V95.873z"/>
			</g>
			<g>
				<path fill="#FFFFFF" d="M122.749,95.802v25.832c0,0.567-0.499,1.137-1.136,1.137h-2.272c-0.644,0-1.134-0.569-1.134-1.137
					V95.802c0-1.986-1.635-3.618-3.622-3.618c-2.056,0-3.692,1.632-3.692,3.618v25.832c0,0.567-0.493,1.137-1.134,1.137h-2.271
					c-0.637,0-1.136-0.569-1.136-1.137V95.802c0-4.47,3.695-8.159,8.233-8.159C119.056,87.643,122.749,91.332,122.749,95.802z"/>
			</g>
			<g>
				<path fill="#FFFFFF" d="M193.648,95.873v25.762c0,0.64-0.496,1.136-1.136,1.136h-2.269c-0.639,0-1.14-0.496-1.14-1.136v-14.121
					h-7.308v14.121c0,0.64-0.495,1.136-1.136,1.136h-2.271c-0.642,0-1.138-0.496-1.138-1.136V95.873c0-4.47,3.692-8.161,8.234-8.161
					C189.962,87.712,193.648,91.403,193.648,95.873z M189.104,95.873c0-1.986-1.631-3.618-3.617-3.618
					c-2.06,0-3.69,1.632-3.69,3.618v7.098h7.308V95.873z"/>
			</g>
			<g>
				<path fill="#FFFFFF" d="M229.102,95.805v25.833c0,0.566-0.5,1.133-1.137,1.133h-2.271c-0.645,0-1.135-0.566-1.135-1.133V95.805
					c0-1.987-1.635-3.62-3.622-3.62c-2.056,0-3.692,1.633-3.692,3.62v25.833c0,0.566-0.493,1.133-1.133,1.133h-2.272
					c-0.637,0-1.135-0.566-1.135-1.133V95.805c0-4.471,3.694-8.16,8.232-8.16C225.408,87.645,229.102,91.334,229.102,95.805z"/>
			</g>
			<g>
				<path fill="#FFFFFF" d="M264.555,95.873v18.665c0,4.542-3.625,8.232-8.164,8.232h-5.962c-1.205,0-2.274-1.064-2.274-2.271
					V89.913c0-1.279,1.069-2.271,2.274-2.271h5.962C260.93,87.642,264.555,91.332,264.555,95.873z M260.01,95.873
					c0-2.059-1.636-3.69-3.619-3.69h-3.689v25.975h3.689c1.983,0,3.619-1.631,3.619-3.619V95.873z"/>
			</g>
			<g>
				<path fill="#FFFFFF" d="M300,95.872v25.762c0,0.638-0.496,1.137-1.135,1.137h-2.27c-0.639,0-1.139-0.499-1.139-1.137v-14.122
					h-7.309v14.122c0,0.638-0.494,1.137-1.135,1.137h-2.271c-0.641,0-1.137-0.499-1.137-1.137V95.872
					c0-4.472,3.691-8.161,8.233-8.161C296.311,87.711,300,91.4,300,95.872z M295.457,95.872c0-1.987-1.632-3.618-3.618-3.618
					c-2.06,0-3.69,1.631-3.69,3.618v7.096h7.309V95.872z"/>
			</g>
			<g>
				<path fill="#FFFFFF" d="M150.678,86.36h-7.097c-0.904,0-1.668,0.719-1.761,1.603c-0.092,0.236-0.148,0.49-0.148,0.755v31.697
					c0,0.257,0.057,0.504,0.148,0.736c0.089,0.865,0.884,1.619,1.761,1.619h2.268c0.458,0,0.877-0.187,1.196-0.48
					c0.664-0.373,1.13-1.077,1.13-1.875v-12.633h2.501c4.926,0,8.934-4.038,8.934-9.001v-3.288c0-1.29-0.28-2.514-0.775-3.622
					C157.527,88.645,154.367,86.36,150.678,86.36z M157.492,98.781c0,3.795-3.058,6.882-6.816,6.882h-4.621l-0.037,14.787
					l-2.142,0.007c-0.024-0.01-0.063-0.047-0.078-0.047c-0.003,0-0.005,0.002-0.006,0.005l0.051-31.732h6.833
					c3.759,0,6.816,3.055,6.816,6.811V98.781z"/>
				<path fill="#FFFFFF" d="M153.065,91.639c-0.682-0.464-1.503-0.736-2.388-0.736h-4.333v0.041h-0.29v12.458h4.621
					c2.51,0,4.55-2.073,4.55-4.62v-3.288C155.226,93.863,154.357,92.442,153.065,91.639z M153.109,98.781
					c0,1.378-1.091,2.499-2.434,2.499h-2.501v-8.217h2.501c1.343,0,2.434,1.09,2.434,2.43V98.781z"/>
			</g>
		</g>
	</g>
</g>
</svg>
