<?xml version="1.0" encoding="utf-8"?>
<!-- Generator: Adobe Illustrator 16.0.0, SVG Export Plug-In . SVG Version: 6.00 Build 0)  -->
<!DOCTYPE svg PUBLIC "-//W3C//DTD SVG 1.1//EN" "http://www.w3.org/Graphics/SVG/1.1/DTD/svg11.dtd">
<svg version="1.1" id="Layer_1" xmlns="http://www.w3.org/2000/svg" xmlns:xlink="http://www.w3.org/1999/xlink" x="0px" y="0px"
	 width="512px" height="512px" viewBox="0 0 512 512" enable-background="new 0 0 512 512" xml:space="preserve">
<path fill="#010101" d="M256,162.117c-64.175,0-116.181,52.006-116.181,116.181c0,64.175,52.006,116.181,116.181,116.181
	c64.16,0,116.181-52.02,116.181-116.181C372.181,214.138,320.16,162.117,256,162.117z M322.146,335.013
	c-31.313,36.533-86.306,40.76-122.839,9.445c-36.555-31.314-40.767-86.341-9.445-122.854c31.3-36.555,86.306-40.767,122.839-9.438
	C349.234,243.459,353.46,298.479,322.146,335.013z M256,220.208c4.007,0,7.262,3.255,7.262,7.261c0,4.007-3.255,7.262-7.262,7.262
	c-24.067,0-43.554,19.5-43.568,43.554v0.028c0,3.999-3.254,7.262-7.261,7.262c-4.006,0-7.261-3.263-7.261-7.262v-0.028
	C197.924,246.218,223.92,220.208,256,220.208z M451.941,148.19l-62.94-10.502l-19.94-49.872
	c-6.666-16.621-22.55-27.371-40.447-27.371H183.387c-17.891,0-33.782,10.75-40.462,27.386l-19.926,49.857L60.073,148.19
	c-21.11,3.503-36.434,21.564-36.434,42.958v217.839c0,24.024,19.55,43.567,43.567,43.567h377.588
	c24.024,0,43.567-19.543,43.567-43.567V191.148C488.361,169.755,473.045,151.693,451.941,148.19z M459.316,408.987
	c0,8.027-6.496,14.522-14.522,14.522H67.206c-8.034,0-14.522-6.495-14.522-14.522V191.148c0-7.105,5.141-13.161,12.14-14.317
	l79.059-13.175l26.01-65.033c2.227-5.502,7.552-9.133,13.494-9.133h145.227c5.928,0,11.26,3.616,13.473,9.133l26.01,65.033
	l79.08,13.175c7.007,1.156,12.141,7.211,12.141,14.317V408.987z"/>
</svg>
