<?xml version="1.0" encoding="utf-8"?>
<!-- Generator: Adobe Illustrator 16.0.0, SVG Export Plug-In . SVG Version: 6.00 Build 0)  -->
<!DOCTYPE svg PUBLIC "-//W3C//DTD SVG 1.1//EN" "http://www.w3.org/Graphics/SVG/1.1/DTD/svg11.dtd">
<svg version="1.1" id="Layer_1" xmlns="http://www.w3.org/2000/svg" xmlns:xlink="http://www.w3.org/1999/xlink" x="0px" y="0px"
	 width="512px" height="512px" viewBox="0 0 512 512" enable-background="new 0 0 512 512" xml:space="preserve">
<path fill="#010101" d="M447.84,119.971h-12.15c-7.199,0-14.104,2.837-19.242,7.895l-37.121,36.612v-17.102
	c0-22.709-18.413-41.108-41.109-41.108H77.862c-22.662,0-41.108,18.426-41.108,41.108v219.246c0,22.695,18.399,41.108,41.108,41.108
	h260.354c22.696,0,41.109-18.413,41.109-41.108v-16.727l37.121,36.611c5.139,5.059,12.043,7.896,19.242,7.896h12.15
	c15.122,0,27.406-12.271,27.406-27.405V147.377C475.246,132.235,462.962,119.971,447.84,119.971z M77.862,380.326
	c-7.561,0-13.703-6.156-13.703-13.703V147.377c0-7.574,6.122-13.703,13.703-13.703h260.354c7.548,0,13.703,6.143,13.703,13.703
	v219.246c0,7.547-6.155,13.703-13.703,13.703H77.862z M447.84,366.998h-13.702l-54.812-54.812v-0.375l-13.703-13.703v-82.217
	l68.515-68.515h13.702V366.998z"/>
</svg>
