<?xml version="1.0" encoding="utf-8"?>
<!-- Generator: Adobe Illustrator 16.0.0, SVG Export Plug-In . SVG Version: 6.00 Build 0)  -->
<!DOCTYPE svg PUBLIC "-//W3C//DTD SVG 1.1//EN" "http://www.w3.org/Graphics/SVG/1.1/DTD/svg11.dtd">
<svg version="1.1" id="Layer_1" xmlns="http://www.w3.org/2000/svg" xmlns:xlink="http://www.w3.org/1999/xlink" x="0px" y="0px"
	 width="512px" height="512px" viewBox="0 0 512 512" enable-background="new 0 0 512 512" xml:space="preserve">
<path fill="#010101" d="M468.049,388.051L468.049,388.051L336.995,256.997l131.054-131.054l0,0c1.41-1.417,2.438-3.065,3.098-4.818
	c1.793-4.806,0.765-10.408-3.098-14.271l-61.908-61.908c-3.863-3.863-9.479-4.872-14.277-3.092c-1.74,0.646-3.401,1.674-4.812,3.078
	l0,0L255.997,175.987L124.943,44.933l0,0c-1.417-1.404-3.065-2.432-4.818-3.078c-4.806-1.793-10.408-0.771-14.271,3.092
	l-61.908,61.908c-3.863,3.862-4.871,9.479-3.091,14.271c0.659,1.753,1.674,3.401,3.091,4.818l0,0L175,256.997L43.946,388.051l0,0
	c-1.404,1.411-2.432,3.072-3.091,4.812c-1.793,4.799-0.771,10.414,3.091,14.277l61.908,61.908c3.863,3.863,9.479,4.864,14.271,3.098
	c1.753-0.658,3.401-1.688,4.818-3.098l0,0l131.054-131.054l131.054,131.054l0,0c1.411,1.41,3.072,2.439,4.812,3.098
	c4.812,1.793,10.414,0.766,14.277-3.098l61.908-61.908c3.862-3.863,4.891-9.479,3.098-14.277
	C470.487,391.123,469.459,389.462,468.049,388.051z"/>
</svg>
