<?xml version="1.0" encoding="utf-8"?>
<!-- Generator: Adobe Illustrator 16.0.0, SVG Export Plug-In . SVG Version: 6.00 Build 0)  -->
<!DOCTYPE svg PUBLIC "-//W3C//DTD SVG 1.1//EN" "http://www.w3.org/Graphics/SVG/1.1/DTD/svg11.dtd">
<svg version="1.1" id="Layer_1" xmlns="http://www.w3.org/2000/svg" xmlns:xlink="http://www.w3.org/1999/xlink" x="0px" y="0px"
	 width="512px" height="512px" viewBox="0 0 512 512" enable-background="new 0 0 512 512" xml:space="preserve">
<path fill="#010101" d="M402.317,110.655l-292.635,0.052c-7.358,0-13.302,5.891-13.302,13.249v186.222
	c0,7.353,5.943,13.303,13.302,13.303h292.635c7.353,0,13.302-5.95,13.302-13.303V123.956
	C415.619,116.598,409.67,110.655,402.317,110.655z M402.317,310.23H109.683V123.956h292.635V310.23z M428.92,57.5H83.08
	c-22.043,0-39.905,17.849-39.905,39.905v266.031c0,22.005,17.796,39.827,39.775,39.879h133.146v16.186l-83.031,10.781
	c-5.93,1.48-10.08,6.807-10.08,12.912c0,7.353,5.942,13.302,13.302,13.302h239.428c7.353,0,13.302-5.949,13.302-13.302
	c0-6.105-4.156-11.432-10.08-12.912l-83.031-10.781v-16.186h133.146c21.979-0.052,39.774-17.874,39.774-39.879V97.405
	C468.825,75.349,450.951,57.5,428.92,57.5z M442.223,363.437c0,7.326-5.976,13.302-13.303,13.302H83.08
	c-7.339,0-13.302-5.976-13.302-13.302V97.405c0-7.339,5.962-13.302,13.302-13.302h345.84c7.327,0,13.303,5.962,13.303,13.302
	V363.437z"/>
</svg>
