<?xml version="1.0" encoding="utf-8"?>
<!-- Generator: Adobe Illustrator 16.0.4, SVG Export Plug-In . SVG Version: 6.00 Build 0)  -->
<!DOCTYPE svg PUBLIC "-//W3C//DTD SVG 1.1//EN" "http://www.w3.org/Graphics/SVG/1.1/DTD/svg11.dtd">
<svg version="1.1" id="Layer_1" xmlns="http://www.w3.org/2000/svg" xmlns:xlink="http://www.w3.org/1999/xlink" x="0px" y="0px"
	 width="512px" height="512px" viewBox="-66 -66 512 512" enable-background="new -66 -66 512 512" xml:space="preserve">
<g>
	<g>
		<defs>
			<rect id="SVGID_1_" x="-61.25" y="-62.25" width="502.5" height="502.5"/>
		</defs>
		<clipPath id="SVGID_2_">
			<use xlink:href="#SVGID_1_"  overflow="visible"/>
		</clipPath>
		<path clip-path="url(#SVGID_2_)" fill="#D43146" d="M190-62.25C51.46-62.25-61.25,50.46-61.25,189
			c0,138.539,112.71,251.25,251.25,251.25c138.539,0,251.25-112.711,251.25-251.25C441.25,50.46,328.539-62.25,190-62.25
			 M326.514,364.062C288.816,393.524,241.44,411.148,190,411.148c-51.441,0-98.815-17.623-136.512-47.084V247.094
			c0-75.273,61.24-136.511,136.512-136.511c75.274,0,136.514,61.238,136.514,136.511V364.062z M77.951,125.272V75.93
			c0-9.587,7.799-17.386,17.386-17.386c9.589,0,17.387,7.799,17.387,17.386v24.748C100.078,107.379,88.396,115.658,77.951,125.272
			 M267.278,100.678V75.93c0-9.587,7.798-17.386,17.385-17.386s17.387,7.799,17.387,17.386v49.343
			C291.605,115.658,279.924,107.379,267.278,100.678 M355.615,336.854v-89.761c0-31.691-8.962-61.321-24.463-86.518V75.93
			c0-25.634-20.855-46.488-46.488-46.488c-25.632,0-46.488,20.854-46.488,46.488v12.718c-15.251-4.646-31.423-7.168-48.176-7.168
			c-16.752,0-32.922,2.522-48.176,7.168V75.93c0-25.634-20.854-46.488-46.487-46.488S48.85,50.295,48.85,75.93v84.646
			c-15.5,25.197-24.464,54.827-24.464,86.518v89.764C-10.741,297.551-32.149,245.738-32.149,189
			C-32.149,66.507,67.508-33.149,190-33.149S412.148,66.507,412.148,189C412.148,245.735,390.74,297.548,355.615,336.854"/>
	</g>
	<g>
		<defs>
			<rect id="SVGID_3_" x="-61.25" y="-62.25" width="502.5" height="502.5"/>
		</defs>
		<clipPath id="SVGID_4_">
			<use xlink:href="#SVGID_3_"  overflow="visible"/>
		</clipPath>
		<path clip-path="url(#SVGID_4_)" fill="#D43146" d="M154.005,214.579c0-4.591-3.723-8.313-8.314-8.313h-36.831
			c-4.592,0-8.314,3.723-8.314,8.313c0,4.593,3.723,8.315,8.314,8.315h36.831C150.282,222.895,154.005,219.169,154.005,214.579"/>
	</g>
	<g>
		<defs>
			<rect id="SVGID_5_" x="-61.25" y="-62.25" width="502.5" height="502.5"/>
		</defs>
		<clipPath id="SVGID_6_">
			<use xlink:href="#SVGID_5_"  overflow="visible"/>
		</clipPath>
		<path clip-path="url(#SVGID_6_)" fill="#D43146" d="M251.963,198.032c-9.896,0.158-17.798,7.696-17.654,16.834
			c0.147,9.141,8.289,16.419,18.187,16.261c9.896-0.157,17.8-7.695,17.652-16.834C270.002,205.154,261.861,197.873,251.963,198.032"
			/>
	</g>
	<g>
		<defs>
			<rect id="SVGID_7_" x="-61.25" y="-62.25" width="502.5" height="502.5"/>
		</defs>
		<clipPath id="SVGID_8_">
			<use xlink:href="#SVGID_7_"  overflow="visible"/>
		</clipPath>
		<path clip-path="url(#SVGID_8_)" fill="#D43146" d="M235.092,286.416h-36.778v-21.372c2.868-2.21,4.733-5.493,4.733-9.215
			c0-6.652-5.841-12.046-13.047-12.046c-7.205,0-13.045,5.394-13.045,12.046c0,3.719,1.863,7.001,4.73,9.212v21.375H145.69
			c-4.592,0-8.315,3.722-8.315,8.312c0,29.23,23.783,53.015,53.016,53.015c29.23,0,53.016-23.781,53.016-53.015
			C243.406,290.138,239.682,286.416,235.092,286.416 M190.391,331.116c-17.203,0-31.655-12.002-35.428-28.072h70.854
			C222.05,319.114,207.597,331.116,190.391,331.116"/>
	</g>
</g>
</svg>
