<?xml version="1.0" encoding="UTF-8" standalone="no"?>
<!-- Created with Inkscape (http://www.inkscape.org/) -->
<svg id="svg2" xmlns:rdf="http://www.w3.org/1999/02/22-rdf-syntax-ns#" xmlns="http://www.w3.org/2000/svg" xml:space="preserve" height="475" width="475" version="1.1" xmlns:cc="http://creativecommons.org/ns#" xmlns:dc="http://purl.org/dc/elements/1.1/"><metadata id="metadata8"><rdf:RDF><cc:Work rdf:about=""><dc:format>image/svg+xml</dc:format><dc:type rdf:resource="http://purl.org/dc/dcmitype/StillImage"/><dc:title/></cc:Work></rdf:RDF></metadata><defs id="defs6"><clipPath id="clipPath16" clipPathUnits="userSpaceOnUse"><path id="path18" d="M0,380,380,380,380,0,0,0,0,380z"/></clipPath></defs><g id="g10" transform="matrix(1.25,0,0,-1.25,0,475)"><g id="g12"><g id="g14" clip-path="url(#clipPath16)"><g id="g20" transform="translate(315.2396,78.1886)"><path id="path22" fill-rule="nonzero" fill="#d43d4e" d="m0,0,0,67.88c0,23.965-6.777,46.372-18.499,65.426v64.009c0,19.385-15.77,35.157-35.155,35.157s-35.155-15.772-35.155-35.157v-9.614c-11.534,3.514-23.763,5.421-36.431,5.421s-24.896-1.907-36.43-5.421v9.614c0,19.385-15.77,35.157-35.155,35.157s-35.156-15.772-35.156-35.157v-64.011c-11.721-19.054-18.498-41.46-18.498-65.424v-67.88c-26.564,29.723-42.754,68.905-42.754,111.81,0,92.633,75.362,167.99,167.99,167.99,92.632,0,167.99-75.361,167.99-167.99,0.004-42.915-16.186-82.097-42.75-111.82m-66.802,178.6,0,18.711c0,7.252,5.898,13.15,13.148,13.15s13.148-5.898,13.148-13.15v-37.31c-7.899,7.27-16.733,13.531-26.296,18.599m-143.17-18.601,0,37.312c0,7.252,5.899,13.15,13.149,13.15s13.148-5.898,13.148-13.15v-18.711c-9.564-5.069-18.399-11.33-26.297-18.601m187.96-180.58c-28.507-22.279-64.332-35.607-103.23-35.607-38.9,0-74.725,13.328-103.23,35.607v88.455c0,56.924,46.31,103.24,103.23,103.24,56.923,0,103.23-46.311,103.23-103.24v-88.455zm-103.23,322.38c-104.77,0-190-85.233-190-190s85.234-190,190-190,190,85.234,190,190-85.233,190-190,190"/></g><g id="g24" transform="translate(254.567,189.4597)"><path id="path26" fill-rule="nonzero" fill="#d43d4e" d="m0,0c-3.472,0-6.288-2.815-6.288-6.288,0-6.395-5.202-11.596-11.596-11.596-6.395,0-11.597,5.201-11.597,11.596,0,3.473-2.816,6.288-6.288,6.288s-6.288-2.815-6.288-6.288c0-13.327,10.844-24.171,24.173-24.171,13.328,0,24.172,10.844,24.172,24.171,0,3.473-2.816,6.288-6.288,6.288"/></g><g id="g28" transform="translate(143.3167,159.0006)"><path id="path30" fill-rule="nonzero" fill="#d43d4e" d="m0,0c13.329,0,24.173,10.844,24.173,24.171,0,3.473-2.815,6.288-6.288,6.288-3.472,0-6.287-2.815-6.287-6.288,0-6.395-5.203-11.596-11.598-11.596s-11.598,5.201-11.598,11.596c0,3.473-2.815,6.288-6.287,6.288-3.473,0-6.288-2.815-6.288-6.288,0-13.327,10.844-24.171,24.173-24.171"/></g><g id="g32" transform="translate(233.9432,142.0103)"><path id="path34" fill-rule="nonzero" fill="#d43d4e" d="m0,0c-3.472,0-6.288-2.815-6.288-6.288,0-3.472,2.816-6.287,6.288-6.287,3.987,0,7.23-3.242,7.23-7.231,0-3.988-3.243-7.23-7.23-7.23l-0.5-0.018c-2.507-0.255-5.863,1.648-9.73,3.791-5.544,3.077-12.446,6.902-21.308,6.902-2.298,0-4.309-0.205-6.118-0.531v7.378c2.169,1.671,3.578,4.154,3.578,6.966,0,5.031-4.417,9.11-9.866,9.11-5.448,0-9.865-4.079-9.865-9.11,0-2.813,1.409-5.296,3.578-6.967v-8.014c-2.415,0.706-5.315,1.168-8.857,1.168-8.861,0-15.763-3.825-21.307-6.902-3.866-2.143-7.215-4.052-9.731-3.791l-0.501,0.018c-3.986,0-7.228,3.242-7.228,7.23,0,3.989,3.242,7.231,7.228,7.231,3.473,0,6.288,2.815,6.288,6.287,0,3.473-2.815,6.288-6.288,6.288-10.92,0-19.804-8.885-19.804-19.806,0-10.837,8.752-19.67,19.557-19.805,0.39-0.025,0.776-0.037,1.158-0.037,5.703,0,10.636,2.735,15.418,5.388,4.938,2.739,9.602,5.324,15.21,5.324,5.967,0,7.807-1.723,8.109-2.06,0.09-0.186,0.209-0.347,0.314-0.52,0.092-0.153,0.172-0.316,0.276-0.458,0.065-0.09,0.144-0.165,0.213-0.25,0.035-0.408,0.106-0.801,0.215-1.183-4.12-2.204-6.898-6.298-6.823-11.002,0.111-6.911,6.268-12.416,13.751-12.296,7.484,0.12,13.461,5.82,13.35,12.731-0.081,5.042-3.397,9.308-8.081,11.215,0.061,0.352,0.108,0.709,0.108,1.078v1.861c1.246,0.464,3.177,0.884,6.118,0.884,5.609,0,10.273-2.585,15.209-5.324,4.784-2.653,9.716-5.388,15.419-5.388,0.38,0,0.767,0.012,1.157,0.037,10.807,0.135,19.559,8.968,19.559,19.805-0.001,10.921-8.886,19.806-19.807,19.806"/></g></g></g></g></svg>
