<?xml version="1.0" encoding="utf-8"?>
<!-- Generator: Adobe Illustrator 16.0.4, SVG Export Plug-In . SVG Version: 6.00 Build 0)  -->
<!DOCTYPE svg PUBLIC "-//W3C//DTD SVG 1.1//EN" "http://www.w3.org/Graphics/SVG/1.1/DTD/svg11.dtd">
<svg version="1.1" id="Layer_1" xmlns="http://www.w3.org/2000/svg" xmlns:xlink="http://www.w3.org/1999/xlink" x="0px" y="0px"
	 width="512px" height="512px" viewBox="-66 -66 512 512" enable-background="new -66 -66 512 512" xml:space="preserve">
<g>
	<g>
		<defs>
			<rect id="SVGID_1_" x="-60.75" y="-60.75" width="501.5" height="501.5"/>
		</defs>
		<clipPath id="SVGID_2_">
			<use xlink:href="#SVGID_1_"  overflow="visible"/>
		</clipPath>
		<path clip-path="url(#SVGID_2_)" fill="#D43146" d="M190-60.75C51.736-60.75-60.75,51.736-60.75,190
			c0,138.263,112.486,250.75,250.75,250.75c138.263,0,250.75-112.487,250.75-250.75C440.75,51.736,328.263-60.75,190-60.75
			 M326.242,364.713c-37.623,29.404-84.904,46.994-136.242,46.994c-51.339,0-98.619-17.589-136.24-46.991V247.979
			c0-75.124,61.118-136.24,136.24-136.24c75.124,0,136.242,61.116,136.242,136.24V364.713z M78.175,126.399V77.155
			c0-9.568,7.783-17.352,17.351-17.352c9.569,0,17.352,7.784,17.352,17.352v24.699C100.257,108.542,88.598,116.804,78.175,126.399
			 M267.122,101.852V77.155c0-9.568,7.783-17.352,17.352-17.352c9.569,0,17.354,7.784,17.354,17.352v49.245
			C291.403,116.804,279.743,108.541,267.122,101.852 M355.285,337.561v-89.582c0-31.629-8.944-61.2-24.413-86.346V77.155
			c0-25.583-20.814-46.396-46.398-46.396c-25.583,0-46.396,20.812-46.396,46.396v12.693c-15.221-4.637-31.358-7.154-48.077-7.154
			s-32.855,2.517-48.08,7.154V77.155c0-25.583-20.812-46.396-46.395-46.396c-25.583,0-46.395,20.812-46.395,46.396v84.478
			c-15.469,25.146-24.415,54.717-24.415,86.346v89.585C-10.342,298.334-31.707,246.625-31.707,190
			C-31.707,67.75,67.751-31.707,190-31.707c122.248,0,221.707,99.457,221.707,221.707
			C411.707,246.622,390.341,298.332,355.285,337.561"/>
	</g>
	<g>
		<defs>
			<rect id="SVGID_3_" x="-60.75" y="-60.75" width="501.5" height="501.5"/>
		</defs>
		<clipPath id="SVGID_4_">
			<use xlink:href="#SVGID_3_"  overflow="visible"/>
		</clipPath>
		<path clip-path="url(#SVGID_4_)" fill="#D43146" d="M235.34,303.137l-37.043-13.762v-23.483c2.864-2.205,4.723-5.481,4.723-9.194
			c0-6.641-5.829-12.023-13.018-12.023c-7.19,0-13.02,5.383-13.02,12.023c0,3.71,1.859,6.987,4.721,9.192v23.485l-37.043,13.762
			c-4.294,1.598-6.482,6.374-4.888,10.671c1.597,4.292,6.362,6.477,10.669,4.888L190,303.997l39.562,14.698
			c0.953,0.354,1.931,0.521,2.888,0.521c3.369,0,6.537-2.065,7.78-5.409C241.825,309.511,239.635,304.734,235.34,303.137"/>
	</g>
	<g>
		<defs>
			<rect id="SVGID_5_" x="-60.75" y="-60.75" width="501.5" height="501.5"/>
		</defs>
		<clipPath id="SVGID_6_">
			<use xlink:href="#SVGID_5_"  overflow="visible"/>
		</clipPath>
		<path clip-path="url(#SVGID_6_)" fill="#D43146" d="M154.963,215.528c0-4.581-3.715-8.297-8.299-8.297h-36.756
			c-4.582,0-8.297,3.716-8.297,8.297c0,4.583,3.715,8.299,8.297,8.299h36.756C151.248,223.827,154.963,220.109,154.963,215.528"/>
	</g>
	<g>
		<defs>
			<rect id="SVGID_7_" x="-60.75" y="-60.75" width="501.5" height="501.5"/>
		</defs>
		<clipPath id="SVGID_8_">
			<use xlink:href="#SVGID_7_"  overflow="visible"/>
		</clipPath>
		<path clip-path="url(#SVGID_8_)" fill="#D43146" d="M270.094,207.231h-36.758c-4.584,0-8.299,3.714-8.299,8.297
			s3.715,8.298,8.299,8.298h36.758c4.582,0,8.298-3.715,8.298-8.298C278.394,210.945,274.676,207.231,270.094,207.231"/>
	</g>
</g>
</svg>
