<?xml version="1.0" encoding="utf-8"?>
<!-- Generator: Adobe Illustrator 16.0.4, SVG Export Plug-In . SVG Version: 6.00 Build 0)  -->
<!DOCTYPE svg PUBLIC "-//W3C//DTD SVG 1.1//EN" "http://www.w3.org/Graphics/SVG/1.1/DTD/svg11.dtd">
<svg version="1.1" id="Layer_1" xmlns="http://www.w3.org/2000/svg" xmlns:xlink="http://www.w3.org/1999/xlink" x="0px" y="0px"
	 width="512px" height="512px" viewBox="-66 -66 512 512" enable-background="new -66 -66 512 512" xml:space="preserve">
<g>
	<g>
		<defs>
			<rect id="SVGID_1_" x="-61.25" y="-62.25" width="502.5" height="502.5"/>
		</defs>
		<clipPath id="SVGID_2_">
			<use xlink:href="#SVGID_1_"  overflow="visible"/>
		</clipPath>
		<path clip-path="url(#SVGID_2_)" fill="#D43146" d="M190-62.25C51.459-62.25-61.25,50.459-61.25,189
			c0,138.541,112.71,251.25,251.25,251.25c138.541,0,251.25-112.709,251.25-251.25C441.25,50.459,328.541-62.25,190-62.25
			 M326.512,364.064c-37.695,29.46-85.071,47.084-136.512,47.084c-51.439,0-98.814-17.624-136.511-47.084V247.094
			c0-75.274,61.239-136.514,136.511-136.514c75.273,0,136.512,61.239,136.512,136.514V364.064L326.512,364.064z M77.951,125.274
			v-49.34c0-9.59,7.8-17.389,17.388-17.389c9.587,0,17.386,7.799,17.386,17.389v24.743
			C100.078,107.378,88.395,115.659,77.951,125.274 M267.276,100.676V75.934c0-9.59,7.8-17.389,17.387-17.389
			s17.385,7.799,17.385,17.389v49.338C291.604,115.658,279.922,107.376,267.276,100.676 M355.612,336.857v-89.764
			c0-31.69-8.961-61.32-24.462-86.517V75.934c0-25.634-20.854-46.491-46.487-46.491c-25.635,0-46.487,20.856-46.487,46.491v12.713
			C222.922,84,206.752,81.478,190,81.478S157.078,84,141.826,88.646V75.934c0-25.634-20.854-46.491-46.488-46.491
			S48.85,50.299,48.85,75.934v84.646c-15.5,25.196-24.461,54.825-24.461,86.514v89.764C-10.74,297.552-32.149,245.738-32.149,189
			C-32.149,66.505,67.508-33.15,190-33.15c122.493,0,222.15,99.655,222.15,222.15C412.148,245.738,390.74,297.552,355.612,336.857"
			/>
	</g>
	<g>
		<defs>
			<rect id="SVGID_3_" x="-61.25" y="-62.25" width="502.5" height="502.5"/>
		</defs>
		<clipPath id="SVGID_4_">
			<use xlink:href="#SVGID_3_"  overflow="visible"/>
		</clipPath>
		<path clip-path="url(#SVGID_4_)" fill="#D43146" d="M275.381,189.714c-4.593,0-8.314,3.723-8.314,8.315
			c0,8.459-6.879,15.334-15.336,15.334c-8.456,0-15.335-6.875-15.335-15.334c0-4.592-3.724-8.315-8.315-8.315
			c-4.591,0-8.315,3.723-8.315,8.315c0,17.622,14.341,31.963,31.966,31.963s31.967-14.341,31.967-31.963
			C283.697,193.438,279.973,189.714,275.381,189.714"/>
	</g>
	<g>
		<defs>
			<rect id="SVGID_5_" x="-61.25" y="-62.25" width="502.5" height="502.5"/>
		</defs>
		<clipPath id="SVGID_6_">
			<use xlink:href="#SVGID_5_"  overflow="visible"/>
		</clipPath>
		<path clip-path="url(#SVGID_6_)" fill="#D43146" d="M128.268,229.992c17.626,0,31.967-14.341,31.967-31.963
			c0-4.592-3.724-8.315-8.316-8.315c-4.591,0-8.312,3.723-8.312,8.315c0,8.459-6.881,15.335-15.338,15.335
			c-8.457,0-15.336-6.876-15.336-15.335c0-4.592-3.723-8.315-8.313-8.315c-4.593,0-8.315,3.723-8.315,8.315
			C96.302,215.651,110.642,229.992,128.268,229.992"/>
	</g>
	<g>
		<defs>
			<rect id="SVGID_7_" x="-61.25" y="-62.25" width="502.5" height="502.5"/>
		</defs>
		<clipPath id="SVGID_8_">
			<use xlink:href="#SVGID_7_"  overflow="visible"/>
		</clipPath>
		<path clip-path="url(#SVGID_8_)" fill="#D43146" d="M248.109,252.459c-4.592,0-8.316,3.724-8.316,8.315
			c0,4.593,3.725,8.314,8.316,8.314c5.271,0,9.559,4.287,9.559,9.561c0,5.274-4.287,9.56-9.559,9.56l-0.661,0.025
			c-3.316,0.337-7.754-2.18-12.867-5.013c-7.331-4.069-16.457-9.128-28.178-9.128c-3.037,0-5.698,0.271-8.09,0.703v-9.757
			c2.868-2.21,4.732-5.492,4.732-9.211c0-6.653-5.841-12.048-13.048-12.048c-7.204,0-13.045,5.395-13.045,12.048
			c0,3.719,1.863,7.003,4.732,9.212v10.598c-3.194-0.933-7.029-1.545-11.713-1.545c-11.717,0-20.845,5.059-28.176,9.128
			c-5.111,2.833-9.541,5.358-12.868,5.013l-0.662-0.025c-5.271,0-9.558-4.285-9.558-9.56c0-5.273,4.287-9.561,9.558-9.561
			c4.593,0,8.315-3.722,8.315-8.314s-3.723-8.316-8.315-8.316c-14.44,0-26.188,11.752-26.188,26.193
			c0,14.33,11.573,26.011,25.861,26.19c0.516,0.032,1.026,0.049,1.531,0.049c7.542,0,14.064-3.618,20.388-7.126
			c6.529-3.622,12.697-7.04,20.113-7.04c7.891,0,10.324,2.277,10.723,2.725c0.119,0.246,0.277,0.46,0.416,0.688
			c0.121,0.202,0.228,0.417,0.365,0.605c0.086,0.118,0.19,0.218,0.281,0.33c0.046,0.54,0.141,1.06,0.284,1.565
			c-5.448,2.913-9.122,8.327-9.022,14.549c0.146,9.138,8.288,16.418,18.184,16.258c9.897-0.157,17.801-7.693,17.653-16.833
			c-0.105-6.667-4.49-12.309-10.685-14.83c0.081-0.466,0.142-0.938,0.142-1.426v-2.46c1.648-0.614,4.201-1.17,8.09-1.17
			c7.417,0,13.584,3.42,20.111,7.041c6.328,3.507,12.85,7.126,20.392,7.126c0.502,0,1.014-0.018,1.528-0.05
			c14.292-0.179,25.865-11.859,25.865-26.19C274.3,264.21,262.55,252.459,248.109,252.459"/>
	</g>
</g>
</svg>
