<?xml version="1.0" encoding="utf-8"?>
<!-- Generator: Adobe Illustrator 16.0.4, SVG Export Plug-In . SVG Version: 6.00 Build 0)  -->
<!DOCTYPE svg PUBLIC "-//W3C//DTD SVG 1.1//EN" "http://www.w3.org/Graphics/SVG/1.1/DTD/svg11.dtd">
<svg version="1.1" id="Layer_1" xmlns="http://www.w3.org/2000/svg" xmlns:xlink="http://www.w3.org/1999/xlink" x="0px" y="0px"
	 width="380px" height="380px" viewBox="0 0 380 380" enable-background="new 0 0 380 380" xml:space="preserve">
<g>
	<defs>
		<rect id="SVGID_1_" width="380" height="380"/>
	</defs>
	<clipPath id="SVGID_2_">
		<use xlink:href="#SVGID_1_"  overflow="visible"/>
	</clipPath>
	<path clip-path="url(#SVGID_2_)" fill="#D43146" d="M190,0C85.234,0,0,85.234,0,190c0,104.766,85.234,190,190,190
		c104.766,0,190-85.234,190-190C380,85.234,294.766,0,190,0 M293.234,322.386c-28.507,22.28-64.333,35.607-103.234,35.607
		c-38.901,0-74.726-13.327-103.233-35.606v-88.456c0-9.636,1.356-18.957,3.837-27.812l20.367,8.961
		c2.666,13.379,14.467,23.465,28.63,23.465c15.88,0,28.772-12.685,29.164-28.469c6.586-3.193,13.83-4.892,21.232-4.892
		c7.405,0,14.652,1.698,21.24,4.895c0.393,15.783,13.284,28.466,29.163,28.466c14.163,0,25.964-10.086,28.63-23.465l20.366-8.963
		c2.481,8.855,3.838,18.177,3.838,27.813V322.386z M190,130.697c42.848,0,79.674,26.244,95.271,63.499l-16.75,7.372
		c-3.408-12.346-14.691-21.424-28.121-21.424c-11.875,0-22.073,7.1-26.638,17.276c-7.481-3.148-15.55-4.811-23.766-4.811
		c-8.212,0-16.278,1.66-23.761,4.809c-4.564-10.175-14.761-17.274-26.635-17.274c-13.43,0-24.712,9.078-28.121,21.423l-16.749-7.372
		C110.328,156.941,147.153,130.697,190,130.697 M105.267,141.807v-37.311c0-7.251,5.897-13.149,13.147-13.149
		c7.251,0,13.148,5.898,13.148,13.149v18.712C121.999,128.276,113.165,134.536,105.267,141.807 M248.438,123.207v-18.711
		c0-7.251,5.897-13.149,13.147-13.149c7.251,0,13.15,5.898,13.15,13.149v37.311C266.836,134.536,258.001,128.276,248.438,123.207
		 M315.241,301.81v-67.879c0-23.964-6.777-46.371-18.499-65.425v-64.01c0-19.385-15.772-35.156-35.157-35.156
		s-35.155,15.771-35.155,35.156v9.615c-11.533-3.514-23.762-5.421-36.43-5.421s-24.896,1.907-36.431,5.421v-9.615
		c0-19.385-15.77-35.156-35.155-35.156c-19.385,0-35.154,15.771-35.154,35.156v64.01c-11.722,19.054-18.5,41.461-18.5,65.425v67.881
		C38.196,272.089,22.007,232.906,22.007,190C22.007,97.367,97.369,22.007,190,22.007S357.993,97.367,357.993,190
		C357.993,232.905,341.804,272.088,315.241,301.81"/>
	<path clip-path="url(#SVGID_2_)" fill="#D43146" d="M224.099,263.665h-27.812v-16.16c2.169-1.671,3.579-4.154,3.579-6.967
		c0-5.031-4.417-9.111-9.866-9.111c-5.448,0-9.865,4.08-9.865,9.111c0,2.812,1.409,5.295,3.577,6.966v16.161h-27.22
		c-3.472,0-6.288,2.816-6.288,6.288c0,22.107,17.985,40.093,40.092,40.093c22.105,0,40.091-17.985,40.091-40.093
		C230.387,266.481,227.571,263.665,224.099,263.665 M190.296,297.471c-13.01,0-23.94-9.074-26.792-21.229h53.582
		C214.236,288.396,203.307,297.471,190.296,297.471"/>
</g>
</svg>
