<?xml version="1.0" encoding="UTF-8" standalone="no"?>
<!-- Created with Inkscape (http://www.inkscape.org/) -->
<svg id="svg3068" xmlns:rdf="http://www.w3.org/1999/02/22-rdf-syntax-ns#" xmlns="http://www.w3.org/2000/svg" xml:space="preserve" height="475" width="475" version="1.1" xmlns:cc="http://creativecommons.org/ns#" xmlns:dc="http://purl.org/dc/elements/1.1/"><metadata id="metadata3074"><rdf:RDF><cc:Work rdf:about=""><dc:format>image/svg+xml</dc:format><dc:type rdf:resource="http://purl.org/dc/dcmitype/StillImage"/><dc:title/></cc:Work></rdf:RDF></metadata><defs id="defs3072"><clipPath id="clipPath3082" clipPathUnits="userSpaceOnUse"><path id="path3084" d="M0,380,380,380,380,0,0,0,0,380z"/></clipPath></defs><g id="g3076" transform="matrix(1.25,0,0,-1.25,0,475)"><g id="g3078"><g id="g3080" clip-path="url(#clipPath3082)"><g id="g3086" transform="translate(315.2411,78.1903)"><path id="path3088" fill-rule="nonzero" fill="#d43d4e" d="m0,0,0,67.879c0,23.964-6.777,46.371-18.499,65.425v64.01c0,19.385-15.772,35.156-35.157,35.156s-35.155-15.771-35.155-35.156v-9.615c-11.534,3.514-23.762,5.421-36.43,5.421s-24.896-1.907-36.431-5.421v9.615c0,19.385-15.77,35.156-35.155,35.156s-35.154-15.771-35.154-35.156v-64.01c-11.722-19.054-18.5-41.461-18.5-65.425v-67.881c-26.564,29.723-42.753,68.905-42.753,111.81,0,92.633,75.362,167.99,167.99,167.99,92.631,0,167.99-75.36,167.99-167.99-0.008-42.906-16.197-82.088-42.76-111.81m-66.804,178.6,0,18.711c0,7.251,5.898,13.149,13.148,13.149,7.251,0,13.15-5.898,13.15-13.149v-37.311c-7.899,7.271-16.734,13.531-26.298,18.6m-143.17-18.6,0,37.311c0,7.251,5.897,13.149,13.147,13.149,7.251,0,13.148-5.898,13.148-13.149v-18.712c-9.563-5.068-18.397-11.328-26.295-18.599m84.733,11.11c42.848,0,79.674-26.244,95.271-63.499l-16.75-7.372c-3.408,12.346-14.691,21.424-28.121,21.424-11.875,0-22.073-7.1-26.637-17.276-7.482,3.148-15.55,4.81-23.766,4.81-8.212,0-16.278-1.66-23.761-4.808-4.564,10.175-14.761,17.274-26.635,17.274-13.43,0-24.712-9.078-28.121-21.423l-16.749,7.372c15.597,37.254,52.422,63.498,95.269,63.498m103.23-191.68c-28.507-22.28-64.333-35.607-103.23-35.607-38.901,0-74.726,13.327-103.23,35.606v88.456c0,9.636,1.356,18.957,3.837,27.812l20.367-8.961c2.666-13.379,14.467-23.465,28.63-23.465,15.88,0,28.772,12.684,29.164,28.469,6.586,3.193,13.83,4.891,21.232,4.891,7.405,0,14.652-1.698,21.24-4.894,0.393-15.784,13.284-28.466,29.163-28.466,14.163,0,25.964,10.086,28.63,23.465l20.366,8.963c2.482-8.856,3.838-18.177,3.838-27.814v-88.455zm-103.23,322.39c-104.77,0-190-85.234-190-190s85.234-190,190-190,190,85.234,190,190-85.234,190-190,190"/></g><g id="g3090" transform="translate(190.2963,82.529)"><path id="path3092" fill-rule="nonzero" fill="#d43d4e" d="m0,0c-13.01,0-23.941,9.075-26.792,21.23h53.582c-2.85-12.155-13.78-21.23-26.79-21.23m33.802,33.806-27.811,0,0,16.16c2.169,1.671,3.579,4.154,3.579,6.967,0,5.031-4.417,9.111-9.866,9.111-5.448,0-9.865-4.08-9.865-9.111,0-2.812,1.409-5.295,3.577-6.966v-16.161h-27.22c-3.472,0-6.288-2.816-6.288-6.288,0-22.108,17.985-40.093,40.092-40.093,22.105,0,40.09,17.985,40.09,40.093,0,3.472-2.815,6.288-6.288,6.288"/></g></g></g></g></svg>
