<?xml version="1.0" encoding="UTF-8" standalone="no"?>
<!-- Created with Inkscape (http://www.inkscape.org/) -->
<svg id="svg3132" xmlns:rdf="http://www.w3.org/1999/02/22-rdf-syntax-ns#" xmlns="http://www.w3.org/2000/svg" xml:space="preserve" height="475" width="475" version="1.1" xmlns:cc="http://creativecommons.org/ns#" xmlns:dc="http://purl.org/dc/elements/1.1/"><metadata id="metadata3138"><rdf:RDF><cc:Work rdf:about=""><dc:format>image/svg+xml</dc:format><dc:type rdf:resource="http://purl.org/dc/dcmitype/StillImage"/><dc:title/></cc:Work></rdf:RDF></metadata><defs id="defs3136"><clipPath id="clipPath3146" clipPathUnits="userSpaceOnUse"><path id="path3148" d="M0,380,380,380,380,0,0,0,0,380z"/></clipPath></defs><g id="g3140" transform="matrix(1.25,0,0,-1.25,0,475)"><g id="g3142"><g id="g3144" clip-path="url(#clipPath3146)"><g id="g3150" transform="translate(315.2411,78.1903)"><path id="path3152" fill-rule="nonzero" fill="#d43d4e" d="m0,0,0,67.879c0,23.964-6.777,46.371-18.499,65.425v64.01c0,19.385-15.77,35.156-35.155,35.156s-35.155-15.771-35.155-35.156v-9.615c-11.535,3.514-23.763,5.421-36.432,5.421-12.668,0-24.896-1.907-36.431-5.421v9.615c0,19.385-15.77,35.156-35.155,35.156s-35.154-15.771-35.154-35.156v-64.01c-11.722-19.054-18.5-41.461-18.5-65.425v-67.881c-26.564,29.723-42.753,68.905-42.753,111.81,0,92.633,75.362,167.99,167.99,167.99,92.631,0,167.99-75.36,167.99-167.99-0.008-42.906-16.197-82.088-42.76-111.81m-66.802,178.6,0,18.712c0,7.251,5.898,13.149,13.148,13.149s13.148-5.898,13.148-13.149v-37.311c-7.899,7.27-16.733,13.531-26.296,18.599m-143.17-18.599,0,37.311c0,7.251,5.897,13.149,13.147,13.149,7.251,0,13.148-5.898,13.148-13.149v-18.712c-9.563-5.068-18.397-11.328-26.295-18.599m187.95-180.58c-28.507-22.28-64.333-35.607-103.23-35.607-38.901,0-74.726,13.327-103.23,35.606v88.456c0,56.924,46.311,103.23,103.23,103.23,56.924,0,103.23-46.31,103.23-103.23v-88.455zm-103.23,322.39c-104.77,0-190-85.234-190-190s85.234-190,190-190,190,85.234,190,190-85.234,190-190,190"/></g><g id="g3154" transform="translate(210.4841,116.3345)"><path id="path3156" fill-rule="nonzero" fill="#d43d4e" d="m0,0-14.196,0,0,16.16c2.168,1.671,3.578,4.155,3.578,6.968,0,5.031-4.417,9.11-9.866,9.11-5.448,0-9.865-4.079-9.865-9.11,0-2.813,1.409-5.295,3.577-6.966v-16.162h-14.195c-3.472,0-6.287-2.815-6.287-6.288v-53.16c0-3.472,2.815-6.287,6.287-6.287h40.967c3.472,0,6.288,2.815,6.288,6.287v53.16c0,3.473-2.816,6.288-6.288,6.288"/></g><g id="g3158" transform="translate(142.741,183.17)"><path id="path3160" fill-rule="nonzero" fill="#d43d4e" d="m0,0c-7.483-0.12-13.46-5.821-13.349-12.731,0.111-6.912,6.267-12.417,13.751-12.297s13.461,5.82,13.35,12.731-6.268,12.417-13.752,12.297"/></g><g id="g3162" transform="translate(236.8583,183.17)"><path id="path3164" fill-rule="nonzero" fill="#d43d4e" d="m0,0c-7.484-0.12-13.46-5.821-13.35-12.731,0.111-6.912,6.268-12.417,13.752-12.297s13.46,5.82,13.35,12.731c-0.111,6.911-6.268,12.417-13.752,12.297"/></g></g></g></g></svg>
