<?xml version="1.0" encoding="utf-8"?>
<!-- Generator: Adobe Illustrator 16.0.4, SVG Export Plug-In . SVG Version: 6.00 Build 0)  -->
<!DOCTYPE svg PUBLIC "-//W3C//DTD SVG 1.1//EN" "http://www.w3.org/Graphics/SVG/1.1/DTD/svg11.dtd">
<svg version="1.1" id="Layer_1" xmlns="http://www.w3.org/2000/svg" xmlns:xlink="http://www.w3.org/1999/xlink" x="0px" y="0px"
	 width="512px" height="512px" viewBox="0 0 512 512" enable-background="new 0 0 512 512" xml:space="preserve">
<g>
	<g>
		<path fill="#D23146" d="M255.471,4.019c-111.35,0-201.94,90.59-201.94,201.941c0,111.35,90.59,201.94,201.94,201.94
			c111.35,0,201.94-90.591,201.94-201.94C457.411,94.608,366.82,4.019,255.471,4.019z M193.358,134.972
			c-10.164,5.386-19.552,12.04-27.946,19.768V115.08c0-7.706,6.267-13.974,13.973-13.974c7.706,0,13.973,6.268,13.973,13.974
			V134.972z M145.75,346.664v-94.012c0-60.5,49.22-109.721,109.721-109.721s109.721,49.22,109.721,109.721v94.015
			c-30.301,23.678-68.376,37.843-109.721,37.843C214.126,384.51,176.048,370.345,145.75,346.664z M345.529,154.739
			c-8.396-7.729-17.785-14.382-27.948-19.769v-19.89c0-7.706,6.27-13.974,13.973-13.974c7.706,0,13.976,6.268,13.976,13.974V154.739
			z M388.582,324.796v-72.144c0-25.471-7.206-49.287-19.663-69.537V115.08c0-20.603-16.761-37.364-37.365-37.364
			c-20.602,0-37.363,16.761-37.363,37.364v10.222c-12.262-3.734-25.256-5.761-38.72-5.761c-13.467,0-26.461,2.026-38.72,5.762
			V115.08c0-20.603-16.761-37.364-37.365-37.364c-20.604,0-37.366,16.761-37.366,37.364v68.035
			c-12.46,20.25-19.66,44.066-19.66,69.537v72.144C94.125,293.205,76.92,251.561,76.92,205.96
			c0-98.453,80.096-178.552,178.55-178.552c98.452,0,178.55,80.099,178.55,178.552C434.021,251.562,416.815,293.207,388.582,324.796
			z"/>
		<path fill="#D23146" d="M218.176,231.645c0,3.69,2.992,6.684,6.686,6.684c3.69,0,6.682-2.994,6.682-6.684v-8.923
			c0-14.167-11.524-25.692-25.692-25.692c-14.165,0-25.689,11.525-25.689,25.692v8.286c0,3.69,2.992,6.683,6.68,6.683
			c3.693,0,6.685-2.992,6.685-6.683v-8.286c0-6.795,5.529-12.326,12.324-12.326c6.798,0,12.324,5.53,12.324,12.326V231.645z"/>
		<path fill="#D23146" d="M305.084,197.029c-14.162,0-25.689,11.525-25.689,25.692v8.286c0,3.69,2.992,6.683,6.683,6.683
			s6.683-2.992,6.683-6.683v-8.286c0-6.795,5.531-12.326,12.324-12.326c6.799,0,12.33,5.53,12.33,12.326v8.923
			c0,3.69,2.992,6.684,6.682,6.684c3.691,0,6.683-2.994,6.683-6.684v-8.923C330.778,208.555,319.252,197.029,305.084,197.029z"/>
		<path fill="#D23146" d="M284.932,274.269c-4.298,4.296-13.469,7.819-22.775,9.12v-16.312c2.302-1.775,3.801-4.417,3.801-7.403
			c0-5.348-4.694-9.683-10.486-9.683c-5.792,0-10.486,4.335-10.486,9.683c0,2.989,1.499,5.628,3.803,7.403v16.523
			c-9.561-0.998-18.285-4.235-22.779-8.729c-2.607-2.613-6.844-2.613-9.451,0c-2.61,2.607-2.61,6.838,0,9.448
			c9.581,9.587,26.062,13,38.285,13c0.17,0,0.351-0.009,0.521-0.012c0.037,0,0.068,0.012,0.107,0.012
			c0.057,0,0.107-0.015,0.164-0.017c12.44-0.17,29.595-4.432,38.748-13.583c2.607-2.61,2.607-6.841,0-9.451
			C291.772,271.658,287.539,271.658,284.932,274.269z"/>
	</g>
	<g>
		<path fill="#D23146" d="M125.765,444.745c0-3.238,2.624-5.859,5.859-5.859s5.862,2.621,5.862,5.859v15.418
			c2.695-3.467,6.165-6.629,12.098-6.629c8.868,0,14.032,5.859,14.032,15.339v21.356c0,3.238-2.622,5.859-5.857,5.859
			c-3.241,0-5.859-2.621-5.859-5.859v-17.654c0-5.552-2.622-8.402-7.093-8.402c-4.471,0-7.321,2.851-7.321,8.402v17.654
			c0,3.238-2.627,5.859-5.862,5.859s-5.859-2.621-5.859-5.859V444.745z"/>
		<path fill="#D23146" d="M169.021,444.438c0-3.392,2.854-5.473,6.555-5.473c3.699,0,6.552,2.081,6.552,5.473v0.155
			c0,3.394-2.853,5.548-6.552,5.548c-3.702,0-6.555-2.154-6.555-5.548V444.438z M169.716,459.702c0-3.238,2.619-5.859,5.859-5.859
			c3.238,0,5.857,2.621,5.857,5.859v30.527c0,3.238-2.619,5.859-5.857,5.859c-3.241,0-5.859-2.621-5.859-5.859V459.702z"/>
		<path fill="#D23146" d="M209.731,505.263c-2.005-0.769-3.317-2.39-3.317-4.55c0-2.621,2.161-4.779,4.785-4.779
			c0.77,0,1.383,0.155,1.926,0.388c3.394,1.538,7.014,2.466,11.405,2.466c8.023,0,11.798-3.854,11.798-11.255v-2.005
			c-3.47,4.162-7.248,6.707-13.492,6.707c-9.632,0-18.348-7.016-18.348-19.271v-0.156c0-12.332,8.868-19.272,18.348-19.272
			c6.402,0,10.18,2.698,13.336,6.168v-0.076c0-3.162,2.622-5.783,5.862-5.783c3.238,0,5.856,2.621,5.856,5.859v26.597
			c0,7.4-1.77,12.797-5.243,16.267c-3.854,3.852-9.791,5.548-17.808,5.548C219.369,508.113,214.59,507.191,209.731,505.263z
			 M236.328,472.963v-0.156c0-5.627-4.397-9.559-10.101-9.559c-5.704,0-10.02,3.932-10.02,9.559v0.156
			c0,5.703,4.315,9.558,10.02,9.558C231.931,482.521,236.328,478.59,236.328,472.963z"/>
		<path fill="#D23146" d="M291.304,490.229c0,3.238-2.622,5.859-5.856,5.859c-3.241,0-5.86-2.621-5.86-5.859v-0.464
			c-2.697,3.471-6.167,6.629-12.106,6.629c-8.862,0-14.029-5.854-14.029-15.339v-21.354c0-3.238,2.622-5.859,5.859-5.859
			c3.235,0,5.86,2.621,5.86,5.859v17.655c0,5.548,2.624,8.401,7.092,8.401c4.472,0,7.324-2.854,7.324-8.401v-17.655
			c0-3.238,2.619-5.859,5.86-5.859c3.234,0,5.856,2.621,5.856,5.859V490.229z"/>
		<path fill="#D23146" d="M299.329,507.112c-1.696-0.616-3.702-2.002-3.702-4.855s2.24-4.782,4.627-4.782
			c0.928,0,1.465,0.153,1.926,0.312c1.007,0.306,1.62,0.461,2.469,0.461c2.081,0,3.085-0.388,4.163-2.469l0.384-0.922
			l-14.105-32.686c-0.311-0.774-0.616-1.929-0.616-2.7c0-3.314,2.545-5.628,5.78-5.628c2.933,0,4.627,1.62,5.628,4.395l8.941,24.052
			l8.637-23.976c0.922-2.466,2.618-4.471,5.628-4.471c3.006,0,5.548,2.313,5.548,5.398c0,0.922-0.308,2.234-0.537,2.771
			l-14.414,34.614c-3.473,8.404-6.937,11.565-13.953,11.565C303.107,508.192,301.258,507.809,299.329,507.112z"/>
		<path fill="#D23146" d="M335.88,491.694c-1.232-0.769-2.236-2.16-2.236-4.01c0-2.618,2.005-4.626,4.626-4.626
			c0.849,0,1.697,0.231,2.313,0.616c3.934,2.469,7.861,3.701,11.176,3.701c3.396,0,4.935-1.232,4.935-3.085v-0.152
			c0-2.545-4.007-3.391-8.557-4.779c-5.78-1.697-12.333-4.395-12.333-12.409v-0.158c0-8.402,6.784-13.104,15.107-13.104
			c4.32,0,8.792,1.159,12.799,3.161c1.696,0.849,2.777,2.393,2.777,4.395c0,2.622-2.085,4.627-4.703,4.627
			c-0.849,0-1.392-0.155-2.161-0.54c-3.313-1.621-6.473-2.622-8.941-2.622c-2.851,0-4.318,1.233-4.318,2.851v0.156
			c0,2.31,3.934,3.391,8.404,4.935c5.783,1.926,12.491,4.7,12.491,12.256v0.153c0,9.176-6.866,13.336-15.805,13.336
			C346.363,496.395,340.895,494.933,335.88,491.694z"/>
		<path fill="#D23146" d="M371.428,445.361c-0.232-2.233,1.001-3.931,3.082-3.931h7.557c2.084,0,3.316,1.697,3.082,3.931
			l-3.317,28.986c-0.226,2.082-1.617,3.394-3.543,3.394c-1.929,0-3.314-1.312-3.546-3.394L371.428,445.361z M378.288,482.826
			c3.854,0,6.708,2.856,6.708,6.556v0.152c0,3.702-2.854,6.555-6.708,6.555c-3.857,0-6.708-2.853-6.708-6.555v-0.152
			C371.58,485.683,374.431,482.826,378.288,482.826z"/>
	</g>
</g>
</svg>
