<?xml version="1.0" encoding="utf-8"?>
<!-- Generated by IcoMoon.io -->
<!DOCTYPE svg PUBLIC "-//W3C//DTD SVG 1.1//EN" "http://www.w3.org/Graphics/SVG/1.1/DTD/svg11.dtd">
<svg version="1.1" xmlns="http://www.w3.org/2000/svg" xmlns:xlink="http://www.w3.org/1999/xlink" width="448" height="512" viewBox="0 0 448 512">
<path d="M64 192h-64v128h64l128 96h32v-320h-32l-128 96zM269.255 210.745c-6.248-6.249-16.379-6.249-22.627 0s-6.248 16.379 0 22.627c12.497 12.496 12.497 32.758 0 45.255-6.248 6.248-6.248 16.379 0 22.627s16.38 6.248 22.627 0c24.993-24.995 24.993-65.517 0-90.51zM314.51 165.49c-6.248-6.249-16.379-6.249-22.627 0s-6.248 16.379 0 22.627c37.49 37.49 37.49 98.274 0 135.764-6.248 6.248-6.248 16.38 0 22.628s16.38 6.248 22.627 0c49.987-49.987 49.987-131.032 0-181.019zM359.764 120.236c-6.248-6.249-16.38-6.249-22.627 0s-6.248 16.379 0 22.627c62.484 62.484 62.484 163.79 0 226.274-6.248 6.248-6.248 16.38 0 22.627s16.379 6.248 22.627 0c74.981-74.981 74.981-196.548 0-271.529z" fill="#000000"></path>
</svg>
